<?xml version="1.0" encoding="UTF-8" standalone="no"?>
<svg
   xmlns:dc="http://purl.org/dc/elements/1.1/"
   xmlns:cc="http://creativecommons.org/ns#"
   xmlns:rdf="http://www.w3.org/1999/02/22-rdf-syntax-ns#"
   xmlns:svg="http://www.w3.org/2000/svg"
   xmlns="http://www.w3.org/2000/svg"
   id="svg29"
   overflow="visible"
   height="1000"
   width="1000"
   version="1.1">
  <metadata
     id="metadata35">
    <rdf:RDF>
      <cc:Work
         rdf:about="">
        <dc:format>image/svg+xml</dc:format>
        <dc:type
           rdf:resource="http://purl.org/dc/dcmitype/StillImage" />
      </cc:Work>
    </rdf:RDF>
  </metadata>
  <defs
     id="defs33" />
  <g
     id="g27"
     opacity="1"
     class="signage-logo">
    <defs
       id="SvgjsDefs1021">
      <linearGradient
         y2="10.897595405578612"
         x2="89.25557327270508"
         y1="87.94181156158447"
         x1="12.21135711669923"
         gradientUnits="userSpaceOnUse"
         id="SvgjsLinearGradientAWNfhf785">
        <stop
           offset="0.05"
           stop-color="#5a88fc"
           id="SvgjsStop1024" />
        <stop
           offset="0.95"
           stop-color="#043fd2"
           id="SvgjsStop1025" />
      </linearGradient>
    </defs>
    <g
       opacity="1"
       transform="scale(0.4573373149893297)"
       id="SvgjsG1022">
      <g
         fill="url(#SvgjsLinearGradientAWNfhf785)"
         non-strokable="false"
         light-content="false"
         transform="translate(-51.50257912627321, -44.417632489037786) scale(4.1507840909188385)"
         class="hJuKSZY2WR"
         id="SvgjsG1026">
        <path
           id="path6"
           d="M88.588 49.717c-.02.357.393.229.471.283-.121-.604-.579-.266-.471-.283zm-1.46-5.726l.184.074-.542-.769zm-1.187-5.253c-.544.692.602 1.853.599 2.852l-.12.189.669.297c-.385-1.128-1.121-2.492-1.148-3.338zm.446-3.274c-.194.276-.444-.518.16.686.005-.074.015-.099.022-.144a5.652 5.652 0 0 1-.182-.542zm.182.542c.223.549.084-.446 0 0zm-1.207-2.443l.562.599c.08-.213-.188-.859.032-.675-.473-.67-.546-.445-.594.076zm-.787-.433l.267.312c.032-.093.007-.199-.267-.312zm.834.981l-.567-.669c-.055.15-.261.257.24.315-.222.027.035.09.327.354zm.107.476c.055.448.144 1.004-.366.392.605 1.319 1.028.93.366-.392zm-.372 4.118l-.006.29c-.004.145-.026.294-.026.294l.349.391c-.159-.2-.096-1.081-.317-.975zm-1.771-9.577c-.154.04-.207.438-.343.589l.445.397c-.063-.304-.272-.832-.102-.986zm-.344.589l-.662-.586c.367.661.544.714.662.586zm.776 3.64l1.089 1.001-1.21-1.234zM81.519 26.4l.577.185-.95-.383zm-1.387-1.693c.468.084.041-.689.437-.518-.445-.415-.979-.632-1.453-.818.42.275.749.686 1.016 1.336zm-1.771-1.68c.213.13.473.23.755.344a2.535 2.535 0 0 0-.755-.344zm3.268 4.865c.036-.105.157-.344-.048-.789l-.147.518.195.271z" />
        <path
           id="path8"
           d="M81.431 27.638l.004-.017-.411-.591.407.608zm.247.322l-.049-.068c-.015.05-.015.073.049.068zm1.462 3.284c-.464-.306-1.204-1.031-1.013-.014.433.149.319-.438 1.013.014zm-1.656-2.651c.021-.014.391.803.391.803.086-.076.14-.303.367-.159 0 0-.737-.661-.758-.644zm-.372-.271l.372.271-.167-.284zm-2-3.874c-.402-.166-.698-.469-1.043-.803.285.437.606.86.945 1.231.149-.036.482-.027.098-.428zm1.145 1.54l-.071-.054c.004.065.02.106.071.054zm-5.598-5.6l.006.111.061-.045zm4.352 4.604c.195.338.428.44.677.52a6.815 6.815 0 0 1-.674-.636c-.067.016-.102.038-.003.116zm-1.715-2.787l.311.641c-.028-.248-.177-.675-.311-.641zm2.904 3.55l.05.035c-.006-.159-.031-.119-.05-.035zm0 0c-.169-.121-.343-.18-.512-.244.169.164.335.311.498.423a.629.629 0 0 1 .014-.179zm-8.351-4.068c.274-.263 1.326-.026 1.637.884.792.319 1.274-1.004 1.179-2.072-.136.123-.216.21-1.067-.124.143.321 1.138 1.634.367 1.419-.968-.6-.632-.684-.932-1.199.065.664-1.589-.292-1.817.443l.927.374c-.056.099-.444.033-.294.275zm4.039-.025l.303.209c-.261-.33-.373-.647-.58-1.253-.583-.266-.769-.237-.885-.165l1.295 1.249-.133-.04z" />
        <path
           id="path10"
           d="M77.385 22.99c-.485.075-1.27-.346-1.201.334.767.702.76.273 1.329.599-1.226-1.186.505.198-.155-.888.281.199.503.409.711.61a8.883 8.883 0 0 1-.463-.799l.008.048.006.006-.005.003c.012.093.005.134-.03.051-.007-.001-.023-.015-.031-.021a.428.428 0 0 1-.168.056c-.274-.432.026-.137.168-.056.02-.011.043-.015.061-.03l-.001-.008c.031-.036-1.423-1.023-1.423-1.023.223.297.593.571 1.194 1.118zm3.49 7.963c.006-.063.033-.078.058-.097-.101-.063-.152-.078-.058.097zm-.131-.715c.113.07.31.063.475.42.066.357-.176.107-.287.197.217.137.691.542.486-.2l-.111-.069c-.218-.645-.224-1.687-.115-1.62a3.287 3.287 0 0 0-.448 1.272zm-1.577-3.641s-.237-.259-.516-.481l-.549-.448.19.764.148-.17c.438.66.526.37.727.335zm-4.494-6.485l.435-.221c.011-.019-1.066-.022-1.066-.022l.631.243zm-1.539-1.09l.293-.274-.543-.108zM20.952 67.197l.289.259a1.622 1.622 0 0 0-.289-.259zm-1.253-2.377l-.204.026c.151.066.244.076.204-.026zm9.979-47.663c-.722.006-1.643-.101-1.332.23l.403.262a2.06 2.06 0 0 1 .929-.492zM14.64 42.905l.154-.141-.309-.464c.049.183.078.385.155.605zm1.702.734l-.385.67c.122-.146.249-.361.385-.67zM31.16 77.485l.295-.054.302-.07c-.548-.367-.428-.029-.597.124zm24.32-65.596a5.302 5.302 0 0 0-1.287-.459c.614.344 1.069.791 1.287.459zM16.369 68.517c.203.183.336.234.417.18-.202-.19-.353-.279-.417-.18zm36.279-57.189c.091.048.182.075.275.116.395-.043.798-.111 1.269-.014-.451-.252-.999-.365-1.544-.102zm25.286 57.514c.037-.022.068-.057.106-.074-.044-.043-.073.002-.106.074zm9.76-13.774c.002.174-.04.452-.075.715.05-.123.08-.339.075-.715zM66.747 14.937c.374.149.078-.015 0 0zm.94 2.359c-.096.007-.182.035-.238.119a.371.371 0 0 1 .238-.119zm-18.928-3.335h-.032c.113.079.094.064.032 0zm18.444 1.415a2.966 2.966 0 0 0-.404-.338c.06.066.182.172.404.338zm.019-.219l.297.19c.078-.042.058-.102-.297-.19z" />
        <path
           id="path12"
           d="M66.233 14.716c.21.093.394.204.566.322-.058-.061-.078-.097-.052-.101l-.514-.221zM54.572 84.517c.025.01.054.014.082.029.334-.233.18-.181-.082-.029zM24.994 26.796c.008-.015.005-.029.012-.043l-.047.028.035.015z" />
        <path
           id="path14"
           d="M24.387 27.944c-.047-.749.215-.94.573-1.164l-1.209-.529.312.854.324.839z" />
        <path
           id="path16"
           d="M24.838 72.309l-.292-.899c1.193.354 1.513 1.037 1.388.086-.529.398-1.169-.159-1.694-.809-.525-.65-1.054-1.296-1.642-.95l-.114-.627c.088.139.169.115.256.252-.141-1.253-1.298-.116-1.915-1.483-.178-.494-.192-.895.127-.682l-.882-.802c-.142-.3.101-.338.249-.046l-.152-.224-.289-.518-.423-.755.041-.006c-.297-.128-.841-.497-1.091-.692-.016-.482.229.143.333-.03 0 0-.735-.737-.714-.749.096-.255.289-.223.485-.053.215.163.44.46.561.769.424-.682.261-.814-.02-1.049-.253-.241-.622-.596-.579-1.631l.466.776c.523-.812.029-1.356.144-2.424-.164.273-.456 2.26-1.129 1.411 0-.311-.099-.678-.536-1.13.46-.148.214-.638.018-1.291l.63-.122c-.358-.652-.661-.519-1.049-.873-.146-.814.292-1.076.683-1.345-.091-1.297-.646 1.043-.995-.465a3.72 3.72 0 0 0-.192-1.495c-.153-.477-.422-.97-.619-1.62.183-.79.397.104.566-.187l-.543-.647c.004-.169.163-.123.243-.1-.227-.567-.641-.011-.861-.927-.349-.115-.148-.603.111-1.184.276-.585.545-1.254.174-1.843.195-.268.385.158.636.086-.447-1.576-.348-1.342-.842-2.7l.581-1.024c-.595.721-1.003-.379-1.318-1.405-.272.248-.511.466-.632.619l-.053-.784c-.019-.392.007-.779.007-.779.148-.157.324.043.524.338a3.608 3.608 0 0 0-.081-.301c.365-.472.654-.111.909.33l-.519.435c.325.443.698.853 1.078.847-.059-.106-.094-.297-.099-.501.089.113.173.19.243.16.079-.034-.058-.213-.15-.474l.779-.165-.257-.137.895-1.69c-.09-.368-.207-.738-.315-1.118a15.897 15.897 0 0 1-.219-1.168c-.103-.815-.165-1.758.138-2.837.242.701.735.44 1.29.714-.835.288-.316 1.657-.822 2.629.263-.517.498-.299.545-.131l.112-2.045c.45.233.485-.249.914-.614-1.085-.055.029-1.593.106-2.463.318.112.541.444.047 1.282 1.145-.606-.481-1.821.665-2.425-.118.21-.231.296-.131.461.033-.628.954-1.687 1.032-1.254l-.118.207c.231-.323.502-.741.77-1.197.286-.445.617-.897.874-1.352.53-.897.85-1.765.62-2.117.094.059.646.81.729.997 0 0-.039-.256-.059-.62l-.08-1.373c-.047-1.012-.051-2.071-.051-2.071.361.689 2.251 1.193 1.673 2.446.34-.195.692-.486 1.092-1.198-.262.09-1.216-.31-1.005-.604 1.293-.076.814-.151 2.159-.437-.388.142-.84-.996-.348-1.394.04.195.774.823.689 1.062l.196-.939c.111-.462.255-.906.255-.906-.184.39.544.782 1.007.835-.26-.082 1.049-.758 1.302-1.088l-.663.171c1.439-.896.494-2.281 2.039-3.169-.069.313.299 1.492 1.103 1.167.03-.34.041-1.207.266-2.065.222-.856.624-1.783 1.27-2.34l.418.165.487-.442c.244-.223.509-.404.509-.404-.215.511-.603 1.474-1.01 2.388-.406.924-.824 1.818-1.138 2.374.689-.055.341.264 1.175-.173.435.134-.247.638-.483.77l2.027-.754c-.182-.285.121-.619.439-.945.331-.292.681-.564.538-.811l-.314.23c-.191.13-.435.323-.665.543l-.926.834c-.189-.281-.087-.86.269-1.452a2.936 2.936 0 0 1 1.773-1.369c.478.11.136 1.225.254 1.42.104-.283 1.25-.928 1.438-.823l-.507.569c.448-.03.706-.362 1.01-.66.304-.289.672-.489 1.265-.317.369-.05 1.253.572 1.217.17-.736-.602-1.475-2.863-1.193-3.53.074.008.623.056 1.206.138.58.061 1.219.286 1.465.424.714.5-.663 1.551-.046 1.979-.013-.184.277-.457.403-.55.409.097-.06.585.749.377.036-.694 1.693-.201.308-.63.795-.298.882-.04 1.843-.124-.358-.423.754-1.537 1.625-1.777-.044.176.159.392.254.49.437-.007.823.005 1.181.024.358.044.688.114 1.013.171.65.119 1.28.23 2.085.273.137.166.885.42.529.685.237-.09.471-.285.961-.227.861.728-1.09-.075-.461.739.104-.384 1.31-.353 2.048-.49-.111-.636-1.602-.363-2.314-.223.077-.84 1.417-1.531 3.246-1.645 1.422.047.481.658.746.579 1.243.395 1.87.176 2.448.004.575-.174 1.108-.32 2.047.371.643.807-.316 1.022-.261 1.455-.556-.091-.924-.329-1.257-.548-.339-.199-.632-.409-1.003-.494l.832.477c-.396.083-1.144.03-1.495-.221.567.571 4.123 1.298 5.7 2.576.384-.014 1.009.079.845-.24l-.594-.203c-.344-.647 1.323-.028.688-.559.45.047.948.07 1.46.176.256.053.516.126.771.235.244.13.485.295.716.506l-.112.649c.07-.166-.494-.729-.876-.737.577.025 1.154 1.669 2.041 1.267l-.505-.804c.883.201 2.228.164 2.98 1.024-.058-.794-.235-.098-.48-1.145.096 1.089-2.415-1.516-1.965-.157-.277-1.103-.983-1.063-1.613-2.143-.064.194.16.507-.639.01a1.033 1.033 0 0 1-.265.07l-.05-.041.036.044c-.05.01-.056.014.014.015.16.177.274.349.288.481-.627.212-1.929-.431-2.468-.422-.45-.323.297-.115.117-.441l-.404.006-.413.037c.11-.437-1.095-1.198.228-.991l-1.099-.425c-.565-.469-1.44-.914-2.059-.909-.516-.235-1.498.126-.934-.092l-1.854-.189.009-.113c-.868-.291-1.838-.203-2.799-.268a8.596 8.596 0 0 1-2.939-.663c-.621.081-1.253.188-2.269.011l-.194-.398c-.783.084-2.39-.299-2.712.104-.228-.25-.587-.377-1.02-.427-.433-.06-.937-.026-1.447.094-1.027.205-2.092.529-2.803.546l.045.506c-.946.142-1.798.557-2.887 1.033l.19.414c-.879.546-2.549.474-4.049 1.067.038-.197.438-.297.744-.298-.538-.073-1.035.024-1.499.207-.453.208-.861.529-1.262.839-.792.645-1.556 1.225-2.47 1.357a1.366 1.366 0 0 1-.898.539.274.274 0 0 0 .079-.076c-.04.019-.097.052-.155.087-.203.033-.418.059-.639.109a2.26 2.26 0 0 0 .558-.058c-.28.181-.683.491-1.043.842l-.444-.293-.091.071c-.518.109-.207.393.215.56a1.927 1.927 0 0 0-.367.61c-.763-.4-.87.976-1.795.633-.011.261-.46.692-.861 1.158-.368.507-.684 1.05-.496 1.454-.086-.072-.226-.016-.038-.197-.461.288-.929.583-1.12 1.081l-.597-.282-.149.693-.103.721c-.744.264-1.113.347-.968-.512-.633 1.78-.763 1.228-1.176 2.785l-.263-.308c-.305.432-.382 1.419-.829 1.471-1.409.437-3.337 4.698-5.146 7.198.666-.029.38.228.06.569-.302.349-.67.78-.269.999-.317.064-.611.412-.663-.139-.266 1.559-1.278 2.073-.781 3.347-.311.098-.304-.435-.502-.327.026.14.106.549-.094.664-.198.113-.166-.284-.218-.561-.363 1.591.427 1.94 1.175 2.228-.281.339-.436.611-.47.879-.01.272.094.54.309.866-.297.221-.637.635-.581-.346-.113.527-.905 3.279-.239 3.398-.171.155-.087.758-.02.906-.1 1.218-.163 1.326-.162 2.527l.12-.331c.726.478.169.987.308 1.949l-.08-.024c-.223 1.114-.144 1.355-.075 1.584.095.23.065.457-.063 1.575l.459-.174c1.054.06-.318 1.981.274 3.185l.196-.503c.432.593-.914 2.175-.872 2.93-.048.175-.201-.202-.319-.399-.116 1.99.668.078 1.155 1.378-.25.345-.933-.069-.709.855-.05.265.449.832.933 1.49.504.653.911 1.427.919 2.122.117-.361.239-.708.694-.213.513.814.237 2.857 1.422 3.231.002.142-.033.216-.087.252.575.541 1.57 1.906 2.172 2.035-.511.75.38 1.573 1.186 2.298.788.747 1.626 1.299 1.048 1.791l1.614 1.653-.153.064c.95 1.145 1.646 1.181 2.252 1.268.18.304-.097.245-.172.285 1.36 1.699 1.678 1.72 3.534 2.189l-.14.515c.277.031.773.665 1.545 1.286.765.62 1.694 1.425 2.792 1.612-.045.041-.129.107-.314.096 1.218.24 2.315 1.235 3.42 1.855 1.102.609 2.11 1.016 2.793.305 0 0 .396.046.808.022l.811-.02c-1.886-.631.501-.68-.203-1.17.759.086 1.782 1.02.84.874l-.119-.127c-.582.811 2.304.961 2.133 1.527 3.896.714 7.79 1.301 11.571 1.003l-.253-.331-.25-.345c.002.027 1.284-.139 1.284-.139.357.117.534.498-.397.609.544.337 1.504-.581 1.496-.74 1.849.016-.564.95-.014.883l.752-.171-.186-.058c.558-.415.565-.649 1.647-.908.716-.032.454.349.732.307.011.052.109.052.423-.086l1.624-.355-.8-.389c.627-.446 1.487-.371.577-.793.67.337 2.13-.13 3.516-.627 1.357-.57 2.575-1.305 2.959-1.301a4.65 4.65 0 0 1 .573-.545 6.85 6.85 0 0 1 .609-.502c.43-.312.912-.588 1.452-.887-.327.058-.819-.402.112-.876.193.65.711.558 1.284.25.575-.306 1.247-.743 1.891-.623-.506-.02.085-.512.605-.993.519-.487.899-1.034.168-.966.726-.511.364.347 1.074.129.6-.936 1.592-1.584 2.485-2.453.912-.842 1.992-1.656 2.68-2.811-.116-.139-.59.047-.461-.563l1.543-.596c.23-.489-.508-.934.483-1.415-.194.034-.483.081-.35-.246 1.741-1.933 2.856-4.384 3.708-6.874.409-1.257.897-2.483 1.265-3.753.21-.627.446-1.249.721-1.867.282-.616.482-1.253.797-1.876-.446.656-.405.174-.336-.365-.134.338-.428-.074-.674-.042l.492-1.032.339-.72c.093-.198.132-.333.132-.333-.637-.456.077-2.361-.545-2.612l.08.691c-.701-.924-1.721 1.173-2.668.947.2.255.213.537.14.838-.091.299-.297.613-.481.943-.374.664-.706 1.371-.226 2.256-.243.302-.259-.349-.505-.209.367.467.305.951-.089 1.763l-.074-.12c-.276 1.203-.503 2.061-.976 2.868l-.693 1.287c-.25.463-.495.987-.878 1.563l.521.009c-.316.51-.505.559-.732.756.353.921.76-1.481 1.214-.599-.616.167-1.072 1.103-1.529 2.01-.474.896-1.072 1.694-1.657 1.638-.473.767.604.061.127.835l-.374.045.2.406c-.356.485-.882.485-1.087.367.11-.097.186-.364.26-.498-.743.405-1.189 1.783-1.438 1.929l.661-.58c-.32.526-.661 1.086-1.084 1.598l-1.353 1.508-.667.766c-.241.233-.476.469-.701.709-.45.48-.862.974-1.209 1.494l.28.047c-1.155 1.516-1.321.716-2.808 2.101l.029-.088c-.184.444-.603.805-1.092 1.076.295-.485-1.09.067-.672-.526-1.472 1.397-.633.831-1.405 2.198l-.451-.195c-.256.496-.212.671-1.105 1.208.624-.654-.825-.229-.161-1.016a3.293 3.293 0 0 0-1.351.395 6.958 6.958 0 0 0-.942.556c-.544.366-.988.647-1.629.252-.593 1.31 1.915-.096 1.475.3.559.152-.504 1.001-1.186 1.142-.661.249-1.52-.921-3.132-.47.164-.037.157-.116.32-.152-.672-.124-1.114.712-1.972.379-.32.676-.999.116-1.001.916l1.525-.417c-.827.334-1.54 1.38-3.084 1.162.099-.176.512-.452.794-.614-.455-.179-.802.307-1.274.083.05-.754 1.871-.449 2.706-1.173-.496-.264-1.669.835-1.324-.086-.257.591-.68.621-1.153.627-.482-.037-1.012-.115-1.561.331l.048-.477c-.174.083-.538.326-.873.331l.572-.645c-.899.565-1.762-.333-2.622-.133.908.046 1.011.184.983.369-.028.19-.194.432.201.584-2.324.568-1.294-1.286-3.796-1.189.339-.027 1.252.351.7.55-.479-.096-1.089-.377-1.345-.676-1.658-.155.19.523-.553.705-.486-.66-.852.108-1.636.176l.083-.475c-.927-.275-1.084-.145-1.245.092-.153.212-.288.419-1.101.017l.876-.465-.92-.059.318-.485c-1.04.128-1.345.025-2.19-.463.105.4-.389.788-1.215.502-.457-.472.466-.318-.705-.672.371-.186.776-.441 1.119.157.103-.13.352-.192.454-.321-.471-.524-1.43-.603-1.841-.747.15.073.327.165.398.263l-.943.006-.927-.078c-.175-.286.086-.321.338-.358-.339-.105-.654-.011-1.146-.202.294-.294.445-.67 1.172-.524l-1.67-.32c-.027-.193-.533-.786-.274-.818-.632-.675-2.3-.476-3.146-1.412-.093.025-.236.009-.475-.101-.432-.38-.777-.815-1.187-1.201a4.867 4.867 0 0 0-.683-.535 3.376 3.376 0 0 0-.857-.466l-.093-1.034c-.888-.59.174 1.353-1.323.354-1.093-.694.067-.739-.1-1.188-.655-.199-1.936-.537-2.284-1.765.356.195.478.483.757.712zm-6.885-11.108c.184.209.651.574.448.849-.616-.076-.449-.387-.448-.849zm-1.918-20.067c.105.231-.047.503-.31.795.023-.251.111-.523.31-.795zm46.518-27.499c-.014.003-.024.005-.037.011-.548-.4-.356-.25.037-.011zm1.188.657c.15-.016.166-.082.137-.164-.132.081-.417-.014-.727-.164.046.151.177.292.59.328zm-4.623 72.665l-.28-.058c.53-.28.403-.118.28.058z" />
        <path
           id="path18"
           d="M16.146 43.549a.481.481 0 0 1-.274.062c.064.116.156.135.274-.062zM31.05 77.505l.028.028a.208.208 0 0 0 .081-.048l-.109.02zm13.042-61.157c-.255-.032-.407-.097-.515-.174.008.117.138.199.515.174zm26.413.392l-.811-.346c.373.198.447.367.588.543.043-.106-.015-.333.223-.197zm4.001 6.775c.128.036.19.164.317.198l.13-.185c-.386-.331-.767-.433-.447-.013zm-4.18-5.008c-.173.39.377.498.876.806-.029-.02-.058-.037-.083-.062.466-.367-.147-.594-.793-.744zm.993.876c.155.092.309.194.439.315.188-.143-.149-.171-.439-.315zm-5.895-4.712c.216.219.372-.397.453-.175.499-.348-1.988-.235-.453.175zm4.568 5.197l.102-.524-.494.172zm-3.717-2.545l.759.52c.027-.08.154-.073.301-.044-.5-.26-1.014-.618-1.06-.476z" />
        <path
           id="path20"
           d="M67.334 17.799c.257.142.493.291.676.3-.141-.074-.435-.25-.676-.3zm1.522 1.555l-.174-.228-.527-.363zm-11.835-5.298l-1.013-.01c-.128.154.122.299.498.287.256-.083.635-.091.515-.277zm2.567 2.038c-.224-.165-.212-.277-.313-.473l-.19.592.503-.119zm-2.754-.534c-.132.154-1.455.28-.26.421.127-.166 1.097-.123.26-.421zm-14.525-.615l.24-.07-.246-.988zm-10.607 7.056c1.057-.354-.116-.664.89-.918.097-.341-.824.209-.708-.105-.436.562-.808.619-.182 1.023zm.182-1.023c.07-.09.142-.19.212-.309a1.171 1.171 0 0 0-.212.309zm56.623 31.233l.253-.795-.368.504zm-.679-1.553l.658-.177-.564-.481c.02.178.059.525-.094.658zM18.61 58.975l-.163-.008c-.136.149-.108.308-.055.628l.218-.62zm3.339 8.641l-.072-.144-.339.572zm5.437 5.571c-.226-.217-.565-.4-.756-.655.516.447.314 1.229.756.655z" />
      </g>
      <g
         fill="#262626"
         light-content="false"
         transform="translate(157.1310777241475, 180.87288696630242) scale(1)"
         class="text"
         id="SvgjsG1027">
        <path
           id="path23"
           d="M-87.15 -16.29C-88.59 -17.43 -90.18 -18.17 -91.92 -18.51C-93.66 -18.85 -95.27 -19.02 -96.75 -19.02C-98.23 -19.02 -99.53 -18.98 -100.65 -18.9C-98.25 -19.9 -96.02 -21.32 -93.96 -23.16C-91.9 -25 -90.87 -27 -90.87 -29.16C-90.87 -34.56 -96.43 -37.78 -107.55 -38.82C-107.55 -38.86 -107.35 -39.14 -106.95 -39.66C-106.55 -40.18 -106.35 -40.62 -106.35 -40.98C-106.35 -41.34 -106.65 -41.52 -107.25 -41.52C-109.41 -41.52 -110.63 -40.68 -110.91 -39L-113.25 -39C-113.89 -39 -114.47 -38.89 -114.99 -38.67C-115.51 -38.45 -115.77 -38.21 -115.77 -37.95C-115.77 -37.69 -115.33 -37.54 -114.45 -37.5L-111.27 -37.5C-112.15 -33.9 -112.93 -29.23 -113.61 -23.49C-114.29 -17.75 -114.63 -13.06 -114.63 -9.42C-114.63 -5.78 -114.47 -3.22 -114.15 -1.74C-114.63 -1.86 -114.89 -1.92 -114.93 -1.92C-115.37 -1.92 -115.59 -1.73 -115.59 -1.35C-115.59 -0.97 -115.24 -0.49 -114.54 0.09C-113.84 0.67 -113.2 0.96 -112.62 0.96C-112.04 0.96 -111.65 0.72 -111.45 0.24C-110.09 0.52 -108.45 0.66 -106.53 0.66C-101.49 0.66 -96.75 -0.36 -92.31 -2.4C-90.15 -3.36 -88.39 -4.66 -87.03 -6.3C-85.67 -7.94 -84.99 -9.73 -84.99 -11.67C-84.99 -13.61 -85.71 -15.15 -87.15 -16.29ZM-87.75 -11.22C-87.75 -8.78 -88.76 -6.75 -90.78 -5.13C-92.8 -3.51 -95.15 -2.39 -97.83 -1.77C-100.51 -1.15 -103.11 -0.84 -105.63 -0.84C-108.15 -0.84 -110.17 -1 -111.69 -1.32C-111.93 -3.8 -112.05 -6.72 -112.05 -10.08C-112.05 -13.44 -111.99 -15.64 -111.87 -16.68C-107.07 -17.4 -103.33 -17.76 -100.65 -17.76C-97.97 -17.76 -95.29 -17.36 -92.61 -16.56C-91.17 -16.12 -90.01 -15.44 -89.13 -14.52C-88.25 -13.6 -87.79 -12.5 -87.75 -11.22ZM-111.57 -18.6L-111.75 -18.6C-111.63 -20.32 -111.11 -23.49 -110.19 -28.11C-109.27 -32.73 -108.55 -35.82 -108.03 -37.38L-107.97 -37.38C-105.37 -37.06 -102.69 -36.4 -99.93 -35.4C-98.41 -34.88 -97.07 -34.15 -95.91 -33.21C-94.75 -32.27 -93.99 -31.2 -93.63 -30C-93.55 -29.36 -93.51 -28.92 -93.51 -28.68C-93.51 -26.64 -94.27 -24.89 -95.79 -23.43C-97.31 -21.97 -99.13 -20.92 -101.25 -20.28C-105.13 -19.12 -108.17 -18.54 -110.37 -18.54Z M-75.69 -32.82C-78.21 -25.62 -79.47 -18.54 -79.47 -11.58C-79.47 -8.06 -79.01 -5.24 -78.09 -3.12C-76.09 1.48 -71.91 1.12 -65.55 -4.2C-63.75 -5.68 -61.8 -7.85 -59.7 -10.71C-57.6 -13.57 -55.57 -16.9 -53.61 -20.7C-54.17 -16.02 -54.83 -9.4 -55.59 -0.84C-55.59 0.04 -55.11 0.48 -54.15 0.48C-52.83 0.48 -52.17 -0.54 -52.17 -2.58C-52.17 -3.3 -52.33 -3.88 -52.65 -4.32C-52.65 -8.16 -52.08 -13.81 -50.94 -21.27C-49.8 -28.73 -48.33 -34.54 -46.53 -38.7L-46.53 -38.82C-46.53 -39.22 -46.83 -39.42 -47.43 -39.42C-48.95 -39.42 -50.08 -38.91 -50.82 -37.89C-51.56 -36.87 -51.93 -35.62 -51.93 -34.14L-51.93 -32.82C-51.93 -30.18 -52.69 -27.02 -54.21 -23.34C-55.73 -19.66 -57.71 -16.16 -60.15 -12.84C-65.35 -5.84 -69.41 -2.34 -72.33 -2.34C-75.13 -2.34 -76.53 -5.16 -76.53 -10.8C-76.53 -12.6 -76.33 -15.24 -75.93 -18.72C-75.53 -22.2 -74.73 -26.02 -73.53 -30.18C-72.33 -34.34 -71.01 -37.08 -69.57 -38.4C-69.41 -38.56 -69.33 -38.74 -69.33 -38.94C-69.33 -39.62 -69.97 -39.96 -71.25 -39.96C-71.93 -39.96 -72.65 -39.66 -73.41 -39.06C-73.81 -38.7 -74.35 -37.85 -75.03 -36.51C-75.71 -35.17 -76.05 -34.23 -76.05 -33.69C-76.05 -33.15 -75.93 -32.86 -75.69 -32.82Z M-35.01 -36.66L-34.53 -36.66C-35.45 -33.1 -36.28 -28.52 -37.02 -22.92C-37.76 -17.32 -38.13 -12.85 -38.13 -9.51C-38.13 -6.17 -37.99 -3.8 -37.71 -2.4C-37.83 -2.44 -37.95 -2.46 -38.07 -2.46C-38.35 -2.46 -38.49 -2.3 -38.49 -1.98C-38.49 -1.26 -37.89 -0.66 -36.69 -0.18C-35.49 0.3 -33.87 0.54 -31.83 0.54C-28.11 0.54 -23.83 -0.24 -18.99 -1.8C-16.63 -2.56 -14.36 -3.55 -12.18 -4.77C-10 -5.99 -8.04 -7.35 -6.3 -8.85C-4.56 -10.35 -3.17 -12.13 -2.13 -14.19C-1.09 -16.25 -0.57 -18.4 -0.57 -20.64C-0.57 -23.8 -1.43 -26.61 -3.15 -29.07C-4.87 -31.53 -7.15 -33.46 -9.99 -34.86C-15.75 -37.66 -22.17 -39.06 -29.25 -39.06L-30.81 -39.06C-30.61 -39.62 -30.37 -40.22 -30.09 -40.86C-30.09 -41.3 -30.37 -41.52 -30.93 -41.52C-32.69 -41.52 -33.73 -40.64 -34.05 -38.88L-36.39 -38.88C-37.03 -38.88 -37.55 -38.66 -37.95 -38.22C-38.35 -37.78 -38.55 -37.35 -38.55 -36.93C-38.55 -36.51 -38.41 -36.3 -38.13 -36.3ZM-35.43 -6.3C-35.47 -6.98 -35.49 -8.02 -35.49 -9.42C-35.49 -18.46 -34.13 -27.58 -31.41 -36.78L-29.31 -36.78C-27.03 -36.78 -24.01 -36.54 -20.25 -36.06C-18.05 -35.78 -16.01 -35.31 -14.13 -34.65C-12.25 -33.99 -10.41 -33.17 -8.61 -32.19C-6.81 -31.21 -5.39 -29.9 -4.35 -28.26C-3.31 -26.62 -2.79 -24.74 -2.79 -22.62C-2.79 -19.22 -4.27 -15.62 -7.23 -11.82C-9.35 -9.06 -12.76 -6.58 -17.46 -4.38C-22.16 -2.18 -26.35 -1.08 -30.03 -1.08C-32.15 -1.08 -33.56 -1.47 -34.26 -2.25C-34.96 -3.03 -35.35 -4.38 -35.43 -6.3Z M41.67 -3.66C41.67 -5.66 41.79 -7.6 42.03 -9.48C42.15 -10.48 42.53 -11.92 43.17 -13.8L43.53 -14.88L44.73 -14.88C45.45 -15 46.01 -15.24 46.41 -15.6C46.81 -15.96 47.01 -16.27 47.01 -16.53C47.01 -16.79 46.89 -16.92 46.65 -16.92C43.65 -16.8 37.55 -16.74 28.35 -16.74C27.95 -16.74 27.58 -16.57 27.24 -16.23C26.9 -15.89 26.73 -15.58 26.73 -15.3C26.73 -15.02 26.93 -14.88 27.33 -14.88L41.19 -14.88C40.83 -12.52 40.55 -10.88 40.35 -9.96C39.39 -7.92 37.55 -5.9 34.83 -3.9C33.43 -2.86 31.68 -2.02 29.58 -1.38C27.48 -0.74 25.21 -0.42 22.77 -0.42C18.29 -0.42 14.86 -1.95 12.48 -5.01C10.1 -8.07 8.91 -11.82 8.91 -16.26C8.91 -19.06 9.41 -21.76 10.41 -24.36C11.41 -26.96 12.83 -29.27 14.67 -31.29C16.51 -33.31 18.86 -34.93 21.72 -36.15C24.58 -37.37 27.5 -37.98 30.48 -37.98C33.46 -37.98 35.8 -37.54 37.5 -36.66C39.2 -35.78 40.05 -34.5 40.05 -32.82C40.05 -32.38 39.85 -31.71 39.45 -30.81C39.05 -29.91 38.85 -29.34 38.85 -29.1C38.85 -28.66 39.23 -28.44 39.99 -28.44C40.75 -28.44 41.38 -28.76 41.88 -29.4C42.38 -30.04 42.63 -30.96 42.63 -32.16C42.63 -37.04 38.75 -39.48 30.99 -39.48C23.23 -39.48 17.12 -37.25 12.66 -32.79C8.2 -28.33 5.97 -22.86 5.97 -16.38C5.97 -11.02 7.47 -6.79 10.47 -3.69C13.47 -0.59 17.75 0.96 23.31 0.96C26.51 0.96 29.6 0.41 32.58 -0.69C35.56 -1.79 37.87 -3.5 39.51 -5.82C39.03 -3.18 38.79 -1.35 38.79 -0.33C38.79 0.69 39.17 1.2 39.93 1.2C40.41 1.2 40.85 0.96 41.25 0.48C41.65 0 41.85 -0.6 41.85 -1.32Z M70.11 -38.88L66.21 -38.88L62.67 -38.94C62.71 -39.06 62.87 -39.36 63.15 -39.84C63.43 -40.32 63.57 -40.68 63.57 -40.92C63.57 -41.32 63.27 -41.52 62.67 -41.52C60.71 -41.52 59.57 -40.64 59.25 -38.88L56.91 -38.88C56.27 -38.88 55.69 -38.77 55.17 -38.55C54.65 -38.33 54.39 -38.12 54.39 -37.92C54.39 -37.64 54.83 -37.48 55.71 -37.44L58.89 -37.44C57.93 -33.88 56.99 -28.3 56.07 -20.7C55.67 -20.66 55.31 -20.48 54.99 -20.16C54.67 -19.84 54.51 -19.54 54.51 -19.26C54.51 -18.98 54.71 -18.84 55.11 -18.84L55.89 -18.84C55.01 -10.84 54.57 -6.14 54.57 -4.74C54.57 -3.34 54.59 -2.54 54.63 -2.34C54.19 -2.26 53.73 -1.98 53.25 -1.5C52.77 -1.02 52.53 -0.62 52.53 -0.3C52.53 -0.06 58.55 0.06 70.59 0.06L78.93 0C79.49 0 79.93 -0.24 80.25 -0.72C80.57 -1.2 80.73 -1.66 80.73 -2.1C80.73 -2.54 80.65 -2.76 80.49 -2.76L80.43 -2.76C78.39 -2.12 76.09 -1.8 73.53 -1.8L57.93 -1.86C57.77 -2.7 57.69 -4.18 57.69 -6.3C57.69 -8.42 57.99 -12.6 58.59 -18.84L74.07 -18.84C74.79 -18.96 75.35 -19.2 75.75 -19.56C76.15 -19.92 76.35 -20.23 76.35 -20.49C76.35 -20.75 76.23 -20.88 75.99 -20.88C73.59 -20.76 67.87 -20.7 58.83 -20.7C59.63 -27.02 60.71 -32.5 62.07 -37.14C66.79 -37.06 69.25 -37.02 69.45 -37.02L72.27 -37.08C74.99 -37.08 76.63 -37.05 77.19 -36.99C77.75 -36.93 78.22 -36.65 78.6 -36.15C78.98 -35.65 79.31 -35.4 79.59 -35.4C79.87 -35.4 80.22 -35.73 80.64 -36.39C81.06 -37.05 81.27 -37.6 81.27 -38.04C81.27 -38.64 80.97 -38.94 80.37 -38.94Z M99.57 -2.82C99.57 -6.46 100.06 -12.02 101.04 -19.5C102.02 -26.98 103.27 -32.84 104.79 -37.08L117.39 -37.08C118.11 -37.2 118.67 -37.44 119.07 -37.8C119.47 -38.16 119.67 -38.47 119.67 -38.73C119.67 -38.99 119.55 -39.12 119.31 -39.12C117.55 -39.04 112.97 -39 105.57 -39C105.53 -39.32 105.14 -39.48 104.4 -39.48C103.66 -39.48 103.01 -39.3 102.45 -38.94L87.15 -38.94C86.75 -38.94 86.38 -38.77 86.04 -38.43C85.7 -38.09 85.53 -37.78 85.53 -37.5C85.53 -37.22 85.73 -37.08 86.13 -37.08L100.77 -37.08C100.37 -36.04 100.17 -35.1 100.17 -34.26L100.17 -32.46C99.21 -27.58 98.49 -22.44 98.01 -17.04C97.85 -15 97.63 -12.24 97.35 -8.76C97.07 -5.28 96.85 -2.64 96.69 -0.84C96.69 0.04 97.17 0.48 98.13 0.48C98.61 0.48 99.04 0.32 99.42 0C99.8 -0.32 99.99 -0.74 99.99 -1.26Z" />
      </g>
    </g>
  </g>
</svg>
